<?xml version="1.0" encoding="utf-8"?>
<!-- Generator: Adobe Illustrator 21.0.2, SVG Export Plug-In . SVG Version: 6.00 Build 0)  -->
<svg version="1.1"
	 id="Layer_1" inkscape:export-filename="/home/user/owncloud/core/img/logo-sticker.png" inkscape:export-xdpi="300.00223" inkscape:export-ydpi="300.00223" inkscape:version="0.48.2 r9819" sodipodi:docname="logo-inverted.svg" xmlns:cc="http://creativecommons.org/ns#" xmlns:dc="http://purl.org/dc/elements/1.1/" xmlns:inkscape="http://www.inkscape.org/namespaces/inkscape" xmlns:rdf="http://www.w3.org/1999/02/22-rdf-syntax-ns#" xmlns:sodipodi="http://sodipodi.sourceforge.net/DTD/sodipodi-0.dtd" xmlns:svg="http://www.w3.org/2000/svg"
	 xmlns="http://www.w3.org/2000/svg" xmlns:xlink="http://www.w3.org/1999/xlink" x="0px" y="0px" viewBox="0 0 500 500"
	 style="enable-background:new 0 0 500 500;" xml:space="preserve">
<style type="text/css">
	.st0{fill:#1D2D44;}
	.st1{fill:#FFFFFF;}
</style>
<rect y="0" class="st0" width="500" height="500"/>
<path id="circle238" inkscape:connector-curvature="0" class="st1" d="M291.3,154.9c-18.1,0-32.7,14.6-32.7,32.7
	c0,7.5,2.5,14.3,6.7,19.8c9.1-10.5,22.5-17.2,37.4-17.2c7.3,0,14.3,1.6,20.5,4.5c0.5-2.3,0.8-4.7,0.8-7.1
	C323.9,169.5,309.3,154.9,291.3,154.9z M248.6,170.1c-9.4,0-17,7.6-17,17c0,3,0.8,5.9,2.2,8.4c5.7-3.2,12.2-5.1,19.2-5.1
	c0.7,0,1.3,0,2,0.1c-0.1-1-0.1-1.9-0.1-2.9c0-5.2,1.1-10.2,3.1-14.7C255.3,171.1,252.1,170.1,248.6,170.1z M329.2,181.8
	c-0.7,0-1.4,0.1-2.1,0.1c0.3,1.9,0.5,3.8,0.5,5.7c0,3-0.4,6-1.1,8.8c8.2,4.6,15.1,11.4,19.6,19.7c4.7-2.4,9.9-4,15.4-4.4
	C360.2,195,346.3,181.8,329.2,181.8z M302.7,194c-25.3,0-45.7,20.5-45.7,45.7c0,25.3,20.5,45.7,45.7,45.7
	c25.3,0,45.7-20.5,45.7-45.7C348.4,214.4,328,194,302.7,194z M253,194.2c-19.6,0-35.5,15.9-35.5,35.5c0,11.6,5.5,21.8,14,28.3
	c3.6-6.9,10.8-11.7,19.2-11.7c1,0,2,0.1,2.9,0.3c-0.3-2.2-0.4-4.5-0.4-6.8c0-11,3.6-21.2,9.7-29.4c-3.6-4.6-6.3-10-7.4-16
	C254.7,194.2,253.9,194.2,253,194.2z M364.2,215.3c-6,0-11.5,1.5-16.5,4.1c2.8,6.2,4.4,13.1,4.4,20.3c0,13.6-5.4,25.9-14.3,34.8
	c6.5,7.2,15.9,11.7,26.4,11.7c19.6,0,35.5-15.9,35.5-35.5S383.9,215.3,364.2,215.3z M214.1,220c-18.1,0-32.7,14.5-32.7,32.6
	s14.7,32.7,32.7,32.7c6.9,0,13.3-2.1,18.5-5.8c-2.2-3.4-3.5-7.4-3.5-11.7c0-2.2,0.3-4.4,1-6.4c-9.9-7.1-16.3-18.7-16.3-31.8
	c0-3.3,0.4-6.5,1.2-9.6C214.7,220,214.4,220,214.1,220z M406.2,248c-1,0-1.9,0.1-2.8,0.3c0.1,0.8,0.1,1.6,0.1,2.4
	c0,10.4-4.1,19.9-10.8,26.9c3.3,3.8,8.1,6.2,13.5,6.2c9.9,0,17.9-8,17.9-17.9C424.2,256.1,416.1,248,406.2,248L406.2,248z
	 M250.7,250c-9.9,0-17.9,8-17.9,17.9s8,17.9,17.9,17.9c7.6,0,14-4.7,16.7-11.4c-6.4-6.5-11-14.8-13-24
	C253.2,250.1,252,250,250.7,250z M447.2,265v35.4h-18.8c-12.3,0-22.2,10-22.2,22.3c0,12.3,10,22.2,22.2,22.2h5.4h1.9
	c3.6,0,7.2-1.7,10.1-4.4c2.9-2.7,5.1-6.4,5.1-10.5c0.1-7.1,0-27.7,0-27.7v-0.9V265H447.2z M275.6,281v49c0,8.2,6.8,14.9,15,14.9
	v-3.7c-6.2,0-11.3-5-11.3-11.2v-46.7C278,282.7,276.8,281.8,275.6,281z M238.4,285.6c-6.6,6.3-10.7,15.1-10.7,24.9
	c0,19,15.5,34.5,34.5,34.5v-3.7c-17,0-30.8-13.7-30.8-30.8c0-9.2,4-17.4,10.3-23C240.6,287,239.5,286.3,238.4,285.6z M194.6,300.3
	c-12.3,0-22.2,10-22.2,22.2v20.6h3.7v-20.6c0-10.3,8.3-18.6,18.5-18.6c10.3,0,18.6,8.3,18.6,18.6v20.6h3.7v-20.6
	C216.9,310.3,206.9,300.3,194.6,300.3z M319.4,300.5c-12.3,0-22.2,10-22.2,22.3c0,12.3,10,22.3,22.2,22.3s22.3-10,22.3-22.3
	C341.7,310.5,331.7,300.5,319.4,300.5z M71.3,300.5c-12.3,0-22.3,10-22.3,22.2C49,335,59,345,71.3,345s22.2-10,22.2-22.2
	C93.5,310.5,83.6,300.5,71.3,300.5z M104.7,302.2v27.9c0,8.2,6.7,14.9,14.9,14.9c5.6,0,10.6-3.1,13.1-7.7c2.5,4.6,7.5,7.7,13.1,7.7
	c8.2,0,15-6.7,15-14.9v-27.9h-3.7v27.9c0,6.2-5,11.2-11.3,11.2c-6.2,0-11.2-5-11.2-11.2v-27.9h-3.7v27.9c0,6.2-5,11.2-11.3,11.2
	c-6.2,0-11.2-5-11.2-11.2v-27.9H104.7z M351.4,302.2v20.6c0,12.3,10,22.2,22.2,22.2s22.3-10,22.3-22.2v-20.6h-3.7v20.6
	c0,10.3-8.3,18.5-18.6,18.5s-18.5-8.3-18.5-18.5v-20.6H351.4z M319.4,304.2c10.3,0,18.6,8.3,18.6,18.6c0,10.3-8.3,18.6-18.6,18.6
	c-10.3,0-18.5-8.3-18.5-18.6C300.9,312.5,309.1,304.2,319.4,304.2z M428.5,304.2h18.8c0,2.5,0.1,19.4,0,25.8
	c-0.1,2.9-1.6,5.8-3.9,7.9s-5.2,3.4-7.6,3.4h-7.3c-10.3,0-18.5-8.3-18.5-18.5C409.9,312.5,418.2,304.2,428.5,304.2z M71.3,304.2
	c10.3,0,18.5,8.3,18.5,18.5c0,10.3-8.3,18.5-18.5,18.5s-18.6-8.3-18.6-18.5S61,304.2,71.3,304.2z"/>
</svg>
